<?xml version="1.0" encoding="utf-8"?>
<!-- Generator: Adobe Illustrator 26.1.0, SVG Export Plug-In . SVG Version: 6.00 Build 0)  -->
<svg version="1.1" id="Layer_1" xmlns="http://www.w3.org/2000/svg" xmlns:xlink="http://www.w3.org/1999/xlink" x="0px" y="0px"
	 viewBox="0 0 460 460" style="enable-background:new 0 0 460 460;" xml:space="preserve">
<style type="text/css">
	.st0{fill:#D4D8FF;}
</style>
<g>
	<g>
		<g>
			<path class="st0" d="M425.9,0H171.7c-18.1,0-32.9,14.7-32.9,32.9V110h30V32.9c0-1.6,1.3-2.9,2.9-2.9h254.3c1.6,0,2.9,1.3,2.9,2.9
				v254.3c0,1.6-1.3,2.9-2.9,2.9h-74.7v30h74.7c18.1,0,32.9-14.7,32.9-32.9V32.9C458.8,14.7,444.1,0,425.9,0z"/>
			<path class="st0" d="M288.3,140H34.1c-18.1,0-32.9,14.7-32.9,32.9v254.3c0,18.1,14.7,32.9,32.9,32.9h254.3
				c18.1,0,32.9-14.7,32.9-32.9V172.9C321.2,154.7,306.5,140,288.3,140z M288.3,430H34.1c-1.6,0-2.9-1.3-2.9-2.9V172.9
				c0-1.6,1.3-2.9,2.9-2.9h254.3c1.6,0,2.9,1.3,2.9,2.9v254.3h0C291.2,428.7,289.9,430,288.3,430z"/>
		</g>
	</g>
</g>
</svg>
