<?xml version="1.0" encoding="utf-8"?>
<!-- Generator: Adobe Illustrator 26.1.0, SVG Export Plug-In . SVG Version: 6.00 Build 0)  -->
<svg version="1.1" id="Layer_1" xmlns="http://www.w3.org/2000/svg" xmlns:xlink="http://www.w3.org/1999/xlink" x="0px" y="0px"
	 viewBox="0 0 64 64" style="enable-background:new 0 0 64 64;" xml:space="preserve">
<style type="text/css">
	.st0{fill:#E4DFFF;stroke:#E4DFFF;stroke-width:2;stroke-miterlimit:10;}
</style>
<g id="Graphic-design_2_">
	<path class="st0" d="M49.8,5.2C49.6,5,49.4,5,49.1,5c-0.2,0-0.5,0.2-0.6,0.4L26.7,36.7c-0.1,0.1-0.1,0.3-0.2,0.4L25.1,47
		c-0.1,0.4,0.1,0.7,0.4,0.9c0.2,0.1,0.4,0.2,0.5,0.2c0.2,0,0.3,0,0.5-0.1l8.8-4.8c0.1-0.1,0.2-0.2,0.3-0.3l21.8-31.3
		c0.3-0.4,0.2-1-0.2-1.3L49.8,5.2z M34.2,41.6l-6.9,3.8l1.1-7.8L49.5,7.3l5.8,4L34.2,41.6z"/>
	<path class="st0" d="M55.9,24.1c-0.5,0-0.9,0.4-0.9,0.9v31.7c0,2-1.6,3.7-3.7,3.7H11.5c-2,0-3.7-1.6-3.7-3.7V16.8
		c0-2,1.6-3.7,3.7-3.7H35c0.5,0,0.9-0.4,0.9-0.9s-0.4-0.9-0.9-0.9H11.5c-3.1,0-5.6,2.5-5.6,5.6v39.9c0,3.1,2.5,5.6,5.6,5.6h39.9
		c3.1,0,5.6-2.5,5.6-5.6V25C56.9,24.5,56.5,24.1,55.9,24.1z"/>
	<path class="st0" d="M59.8,6.9l-7.6-5.1c-0.4-0.3-1-0.2-1.3,0.3c-0.3,0.4-0.2,1,0.3,1.3l7.6,5c0.2,0.1,0.3,0.2,0.5,0.2
		c0.3,0,0.6-0.1,0.8-0.4C60.3,7.8,60.2,7.2,59.8,6.9z"/>
</g>
</svg>
