<svg viewBox="0 0 32 32" xmlns="http://www.w3.org/2000/svg"><path fill="#0dcaf0" d="m17.24,23.97l-15,0c-0.69,0 -1.25,-0.51 -1.25,-1.15l0,-13.78c0,-0.63 0.56,-1.15 1.25,-1.15l15,0c0.69,0 1.25,0.51 1.25,1.15s-0.56,1.15 -1.25,1.15l-13.75,0l0,11.49l13.75,0c0.69,0 1.25,0.51 1.25,1.15s-0.56,1.15 -1.25,1.15zm-10,-9.19c-0.69,0 -1.25,0.51 -1.25,1.15s0.56,1.15 1.25,1.15l7.5,0c0.69,0 1.25,-0.51 1.25,-1.15s-0.56,-1.15 -1.25,-1.15l-7.5,0zm19.99,13.78l-3.75,0l0,-25.27l3.75,0c0.69,0 1.25,-0.51 1.25,-1.15s-0.56,-1.15 -1.25,-1.15l-10,0c-0.69,0 -1.25,0.51 -1.25,1.15s0.56,1.15 1.25,1.15l3.75,0l0,25.27l-3.75,0c-0.69,0 -1.25,0.51 -1.25,1.15s0.56,1.15 1.25,1.15l10,0c0.69,0 1.25,-0.51 1.25,-1.15s-0.56,-1.15 -1.25,-1.15zm2.5,-20.68l-2.5,0c-0.69,0 -1.25,0.51 -1.25,1.15s0.56,1.15 1.25,1.15l1.25,0l0,11.49l-1.25,0c-0.69,0 -1.25,0.51 -1.25,1.15s0.56,1.15 1.25,1.15l2.5,0c0.69,0 1.25,-0.51 1.25,-1.15l0,-13.78c0,-0.63 -0.56,-1.15 -1.25,-1.15z"/></svg>