<?xml version="1.0" encoding="utf-8" ?>
<svg xmlns="http://www.w3.org/2000/svg" version="1.1" height="512" width="512">
    <path d="M256 235L341 235 341 363 256 363ZM128 149L235 149 235 256 128 256ZM256 149L341 149 341 213 256 213ZM128 277L235 277 235 363 128 363ZM384 405L384 107 85 107 85 405ZM469 192L427 192 427 235 469 235 469 277 427 277 427 320 469 320 469 363 427 363 427 405Q427 422 414 435 401 448 384 448L85 448Q68 448 55.5 435 43 422 43 405L43 107Q43 90 55.5 77 68 64 85 64L384 64Q401 64 414 77 427 90 427 107L427 149 469 149Z" fill="#c2c2c2"/>
</svg>