<?xml version="1.0" encoding="utf-8" ?>
<svg xmlns="http://www.w3.org/2000/svg" version="1.1" height="512" width="512">
    <path d="M405 427L405 85 363 85 363 149 149 149 149 85 107 85 107 427ZM271 49Q271 49 268 46 265 43 256 43 247 43 241 49 235 55 235 64 235 73 241 79 247 85 256 85 265 85 271 79 277 73 277 64 277 55 271 49ZM405 43Q422 43 435 55.5 448 68 448 85L448 427Q448 444 435 456.5 422 469 405 469L107 469Q90 469 77 456.5 64 444 64 427L64 85Q64 68 77 55.5 90 43 107 43L196 43Q203 24 219 12 235 0 256 0 277 0 293 12 309 24 316 43Z" fill="#c2c2c2"/>
</svg>