<?xml version="1.0" encoding="utf-8" ?>
<svg xmlns="http://www.w3.org/2000/svg" version="1.1" height="512" width="512">
    <path d="M405 256L405 320 469 320 469 363 405 363 405 427 363 427 363 363 299 363 299 320 363 320 363 256ZM102.5 209.5Q102.5 209.5 92.75 219.25 83 229 83 256 83 283 102.5 302.5 122 322 149 322L235 322 235 363 149 363Q105 363 74 331.5 43 300 43 256 43 212 74 180.5 105 149 149 149L235 149 235 190 149 190Q122 190 102.5 209.5ZM429 256Q429 229 409.5 209.5 390 190 363 190L277 190 277 149 363 149Q407 149 438 180.5 469 212 469 256ZM171 235L341 235 341 277 171 277Z" fill="#c2c2c2"/>
</svg>