<?xml version="1.0" encoding="UTF-8" standalone="no"?><!DOCTYPE svg PUBLIC "-//W3C//DTD SVG 1.1//EN" "http://www.w3.org/Graphics/SVG/1.1/DTD/svg11.dtd">
<svg width="100%" height="100%" viewBox="0 0 512 512" version="1.1" 
    xmlns="http://www.w3.org/2000/svg" 
    xmlns:xlink="http://www.w3.org/1999/xlink" xml:space="preserve" 
    xmlns:serif="http://www.serif.com/" style="fill-rule:evenodd;clip-rule:evenodd;stroke-linejoin:round;stroke-miterlimit:2;">
    <path d="M405,320l0,-213l-299,0l0,213l86,0c0,17.333 6.333,32.333 19,45c12.667,12.667 27.667,19 45,19c17.333,0 32.333,-6.333 45,-19c12.667,-12.667 19,-27.667 19,-45l85,0Zm0,-256c12,0 22.167,4.167 30.5,12.5c8.333,8.333 12.5,18.5 12.5,30.5l0,298c0,11.333 -4.333,21.333 -13,30c-8.667,8.667 -18.667,13 -30,13l-299,0c-12,0 -22,-4.167 -30,-12.5c-8,-8.333 -12,-18.5 -12,-30.5l0,-298c0,-12 4,-22.167 12,-30.5c8,-8.333 18,-12.5 30,-12.5l299,0Z" style="fill-rule:nonzero;" fill="#c2c2c2"/>
    <path d="M330.5,226.113l-64,0l0,64l-21,0l0,-64l-64,0l0,-21l64,0l0,-64l21,0l0,64l64,0l0,21Z" style="fill-rule:nonzero;" fill="#c2c2c2"/>
</svg>