<?xml version="1.0" encoding="utf-8" ?>
<svg xmlns="http://www.w3.org/2000/svg" version="1.1" height="512" width="512">
    <path d="M367 271Q368 266 368 256 368 246 367 241L399 217Q404 213 400 207L370 155Q367 150 361 152L324 167Q311 157 299 152L293 113Q291 107 286 107L226 107Q220 107 219 113L213 153Q197 160 188 167L151 152Q146 150 142 156L112 207Q111 208 111 211 111 216 113 217L145 241Q144 246 144 256 144 266 145 271L113 295Q111 296 111 301 111 304 112 305L142 357Q145 362 151 360L188 345Q201 355 213 360L219 399Q221 405 226 405L286 405Q292 405 293 399L299 359Q315 352 324 345L361 360Q366 362 370 356L400 305Q404 299 399 295L367 271ZM405 64Q423 64 435.5 76.5 448 89 448 107L448 405Q448 423 435.5 435.5 423 448 405 448L107 448Q89 448 76.5 435.5 64 423 64 405L64 107Q64 89 76.5 76.5 89 64 107 64ZM226 226Q226 226 232.5 219.5 239 213 256 213 273 213 286 226 299 239 299 256 299 273 286 286 273 299 256 299 239 299 226 286 213 273 213 256 213 239 226 226Z" fill="#c2c2c2"/>
</svg>