<?xml version="1.0" encoding="utf-8" ?>
<svg xmlns="http://www.w3.org/2000/svg" version="1.1" height="512" width="512">
    <path d="M135 271Q135 271 149 285 163 299 203 299 243 299 271 271 299 243 299 203 299 163 271 135 243 107 203 107 163 107 135 135 107 163 107 203 107 243 135 271ZM331 299L437 405 405 437 299 331 299 314 293 308Q255 341 203 341 145 341 104.5 301 64 261 64 203 64 145 104.5 104.5 145 64 203 64 261 64 301 104.5 341 145 341 203 341 224 331 250.5 321 277 308 293L314 299Z" fill="#c2c2c2"/>
</svg>