<?xml version="1.0" encoding="UTF-8" standalone="no"?><!DOCTYPE svg PUBLIC "-//W3C//DTD SVG 1.1//EN" "http://www.w3.org/Graphics/SVG/1.1/DTD/svg11.dtd">
<svg width="100%" height="100%" viewBox="0 0 24 24" version="1.1" 
    xmlns="http://www.w3.org/2000/svg" 
    xmlns:xlink="http://www.w3.org/1999/xlink" xml:space="preserve" 
    xmlns:serif="http://www.serif.com/" style="fill-rule:evenodd;clip-rule:evenodd;stroke-linejoin:round;stroke-miterlimit:2;">
    <path d="M15,12c2.21,0 4,-1.79 4,-4c0,-2.21 -1.79,-4 -4,-4c-2.21,0 -4,1.79 -4,4c0,2.21 1.79,4 4,4Zm-9,-2l-2,0l-3,0l0,2l8,0l0,-2l-3,0Zm9,4c-2.67,0 -8,1.34 -8,4l0,2l16,0l0,-2c0,-2.66 -5.33,-4 -8,-4Z" style="fill-rule:nonzero;" fill="#c2c2c2"/>
</svg>