<?xml version="1.0" encoding="utf-8" ?>
<svg xmlns="http://www.w3.org/2000/svg" version="1.1" height="512" width="512">
    <path d="M294 324L339 278 467 406 422 452 294 324ZM373 213C415 213 448 180 448 139 448 126 445 115 439 105L382 162 350 130 407 73C397 67 386 64 373 64 332 64 299 97 299 139 299 147 300 156 303 163L264 203 226 165 241 150 211 120 256 74C231 49 191 49 166 74L90 150 120 180 60 180 45 195 120 271 135 256 135 195 166 225 181 210 219 248 61 406 106 451 349 209C356 212 365 213 373 213Z" fill="#c2c2c2"/>
</svg>