<?xml version="1.0" encoding="utf-8" ?>
<svg xmlns="http://www.w3.org/2000/svg" version="1.1" height="512" width="512">
    <path d="M363 149Q407 149 438 180.5 469 212 469 256 469 300 438 331.5 407 363 363 363L277 363 277 322 363 322Q390 322 409.5 302.5 429 283 429 256 429 229 409.5 209.5 390 190 363 190L277 190 277 149ZM171 277L171 235 341 235 341 277ZM102.5 209.5Q102.5 209.5 92.75 219.25 83 229 83 256 83 283 102.5 302.5 122 322 149 322L235 322 235 363 149 363Q105 363 74 331.5 43 300 43 256 43 212 74 180.5 105 149 149 149L235 149 235 190 149 190Q122 190 102.5 209.5Z" fill="#c2c2c2"/>
</svg>