<?xml version="1.0" encoding="utf-8" ?>
<svg xmlns="http://www.w3.org/2000/svg" version="1.1" height="512" width="512">
    <path d="M203 309Q203 309 214 320 225 331 256 331 287 331 309 309 331 287 331 256 331 225 309 203 287 181 256 181 225 181 203 203 181 225 181 256 181 287 203 309ZM415 277L460 312Q467 317 462 326L419 400Q415 407 406 404L353 383Q332 398 317 404L309 460Q307 469 299 469L213 469Q205 469 203 460L195 404Q176 396 159 383L106 404Q97 407 93 400L50 326Q45 317 52 312L97 277Q96 270 96 256 96 242 97 235L52 200Q45 195 50 186L93 112Q97 105 106 108L159 129Q180 114 195 108L203 52Q205 43 213 43L299 43Q307 43 309 52L317 108Q336 116 353 129L406 108Q415 105 419 112L462 186Q467 195 460 200L415 235Q416 242 416 256 416 270 415 277Z" fill="#c2c2c2"/>
</svg>