<?xml version="1.0" encoding="utf-8" ?>
<svg xmlns="http://www.w3.org/2000/svg" version="1.1" height="512" width="512">
    <path d="M43 91L70 64 427 421 400 448 314 363 277 363 277 326 229 277 171 277 171 235 186 235 142 191Q117 194 100 212.5 83 231 83 256 83 283 102.5 302.5 122 322 149 322L235 322 235 363 149 363Q105 363 74 331.5 43 300 43 256 43 226 62 197 81 168 109 157ZM341 235L341 277 337 277 295 235ZM363 149Q407 149 438 180.5 469 212 469 256 469 321 411 351L380 320Q401 315 415 297 429 279 429 256 429 229 409.5 209.5 390 190 363 190L277 190 277 149Z" fill="#c2c2c2"/>
</svg>