<?xml version="1.0" encoding="utf-8" ?>
<svg xmlns="http://www.w3.org/2000/svg" version="1.1" height="512" width="512">
    <path d="M245 341C264 341 281 336 296 326L348 378 378 348 326 296C336 281 341 264 341 245 341 192 298 149 245 149 192 149 149 192 149 245 149 298 192 341 245 341ZM245 192C275 192 299 216 299 245 299 275 275 299 245 299 216 299 192 275 192 245 192 216 216 192 245 192ZM427 85L85 85C62 85 43 105 43 128L43 384C43 407 62 427 85 427L427 427C450 427 469 407 469 384L469 128C469 105 450 85 427 85ZM427 384L85 384 85 128 427 128 427 384Z" fill="#c2c2c2"/>
</svg>