<svg viewBox="0 0 32 32" xmlns="http://www.w3.org/2000/svg"><rect x="14" y="1" rx="3" ry="6" width="4" height="10" fill="#fff"><animate attributeName="opacity" values="1;0" keyTimes="0;1" dur="1s" begin="-0.9166666666666666s" repeatCount="indefinite"/></rect><rect x="14" y="1" rx="3" ry="6" width="4" height="10" fill="#fff" transform="rotate(30 16 16)"><animate attributeName="opacity" values="1;0" keyTimes="0;1" dur="1s" begin="-0.8333333333333334s" repeatCount="indefinite"/></rect><rect x="14" y="1" rx="3" ry="6" width="4" height="10" fill="#fff" transform="rotate(60 16 16)"><animate attributeName="opacity" values="1;0" keyTimes="0;1" dur="1s" begin="-0.75s" repeatCount="indefinite"/></rect><rect x="14" y="1" rx="3" ry="6" width="4" height="10" fill="#fff" transform="rotate(90 16 16)"><animate attributeName="opacity" values="1;0" keyTimes="0;1" dur="1s" begin="-0.6666666666666666s" repeatCount="indefinite"/></rect><rect x="14" y="1" rx="3" ry="6" width="4" height="10" fill="#fff" transform="rotate(120 16 16)"><animate attributeName="opacity" values="1;0" keyTimes="0;1" dur="1s" begin="-0.5833333333333334s" repeatCount="indefinite"/></rect><rect x="14" y="1" rx="3" ry="6" width="4" height="10" fill="#fff" transform="rotate(150 16 16)"><animate attributeName="opacity" values="1;0" keyTimes="0;1" dur="1s" begin="-0.5s" repeatCount="indefinite"/></rect><rect x="14" y="1" rx="3" ry="6" width="4" height="10" fill="#fff" transform="rotate(180 16 16)"><animate attributeName="opacity" values="1;0" keyTimes="0;1" dur="1s" begin="-0.4166666666666667s" repeatCount="indefinite"/></rect><rect x="14" y="1" rx="3" ry="6" width="4" height="10" fill="#fff" transform="rotate(210 16 16)"><animate attributeName="opacity" values="1;0" keyTimes="0;1" dur="1s" begin="-0.3333333333333333s" repeatCount="indefinite"/></rect><rect x="14" y="1" rx="3" ry="6" width="4" height="10" fill="#fff" transform="rotate(240 16 16)"><animate attributeName="opacity" values="1;0" keyTimes="0;1" dur="1s" begin="-0.25s" repeatCount="indefinite"/></rect><rect x="14" y="1" rx="3" ry="6" width="4" height="10" fill="#fff" transform="rotate(270 16 16)"><animate attributeName="opacity" values="1;0" keyTimes="0;1" dur="1s" begin="-0.16666666666666666s" repeatCount="indefinite"/></rect><rect x="14" y="1" rx="3" ry="6" width="4" height="10" fill="#fff" transform="rotate(300 16 16)"><animate attributeName="opacity" values="1;0" keyTimes="0;1" dur="1s" begin="-0.08333333333333333s" repeatCount="indefinite"/></rect><rect x="14" y="1" rx="3" ry="6" width="4" height="10" fill="#fff" transform="rotate(330 16 16)"><animate attributeName="opacity" values="1;0" keyTimes="0;1" dur="1s" begin="0s" repeatCount="indefinite"/></rect></svg>